<svg width="118" height="118" viewBox="0 0 118 118" fill="none" xmlns="http://www.w3.org/2000/svg">
<g clip-path="url(#clip0_500_4115)">
<path d="M96.2004 77.6566C97.0953 76.5909 97.7263 75.3641 98.4998 74.2179C99.4225 73.8111 104.181 73.9379 104.557 73.1548C104.68 72.8986 104.369 72.9713 104.25 72.9409C102.726 72.5434 100.746 73.4295 99.1532 73.2222C99.1915 72.3506 100.762 68.6094 98.8351 68.8709C97.7699 69.0148 95.4322 71.6692 94.751 72.579C94.524 72.8828 94.1808 73.6751 94.0039 73.8098C93.3215 74.3328 90.9019 73.7213 89.9845 74.2733C89.8974 74.4833 89.347 75.5041 89.7456 75.6032L93.3505 74.9389L91.7626 79.7458C90.2314 80.4787 88.5008 81.5497 86.7901 81.7636C86.3717 81.8165 85.9585 81.8693 85.6483 81.5233L83.2908 77.0875C82.1926 76.1076 81.0706 76.995 80.103 77.7108C78.7658 78.6999 77.0881 80.2146 75.8288 81.349C75.6441 81.5154 75.5582 81.7755 75.3523 81.9274L76.077 78.103L74.3663 78.4358L72.7915 82.7646C71.1336 83.9413 69.1774 85.5669 67.2383 83.8449C66.3288 83.0353 67.134 82.8135 67.5076 82.1308C68.1055 81.0373 66.9703 80.5817 66.2641 81.4124C65.7876 81.9736 65.455 82.8439 65.092 83.3404C64.989 83.4804 63.7152 84.5316 63.4842 84.6993C62.972 85.0743 60.5314 86.5811 60.0469 85.8944C59.8423 85.4097 60.0747 85.069 60.2793 84.6583C60.8759 83.4579 63.8036 80.3321 65.0973 80.1142C66.3908 79.8963 66.2113 80.5764 66.4054 80.6187C67.1142 80.7706 67.5643 79.5979 67.3096 79.0248C65.026 77.6949 62.5998 79.7458 61.0409 81.3318C60.3373 82.0476 59.581 83.2651 58.7877 83.8264C57.2142 84.9396 52.02 87.0195 50.1628 86.9482C48.5827 86.8875 48.4732 85.2196 49.1992 84.1275C49.7232 83.3391 51.6306 81.8389 52.5097 81.5035C53.3875 81.1694 55.3504 81.9393 55.1115 80.55C54.9742 79.7577 54.0119 79.7445 53.3889 79.8765C51.987 80.175 49.6506 82.1506 48.7147 83.2466C47.9135 84.1856 48.0059 84.9383 46.7427 85.4943C45.6035 85.9961 42.9265 86.0648 41.8019 85.5497C40.8647 85.1205 41.0746 84.2067 40.7485 83.4368C40.4555 82.7461 39.4074 81.4401 38.5758 81.5325C37.9541 81.6012 37.7139 82.2258 37.4156 82.3605C37.1172 82.4952 36.7899 82.4134 36.5153 82.5177C34.6858 83.2097 33.5414 84.8142 33.144 86.6775C33.0556 87.0895 33.3579 87.1278 32.9658 87.5398C32.2359 88.3084 30.1424 89.2487 29.0758 89.3213C27.2331 89.4454 26.7856 88.5501 26.2299 87.0156C26.0715 86.5771 26.0886 85.9551 25.8246 85.5748C25.7085 85.4084 24.5654 84.3757 24.3251 84.1737C23.8486 83.7736 23.2176 83.4223 22.7464 82.9865C22.3887 83.0684 22.3715 84.3718 22.2672 84.7534C22.0666 85.4837 21.2231 87.0248 20.5565 87.3959C20.2714 87.5544 18.6214 87.9703 18.2584 87.9981C17.0348 88.0932 15.9946 87.763 15.2356 86.8043C14.9769 86.4768 14.5624 85.2064 13.9948 86.1057C13.5671 86.7818 13.938 87.0393 13.9737 87.6706C14.0872 89.6977 12.5956 91.3206 10.4823 90.8994C10.1681 90.836 9.96089 90.4108 9.52001 90.4781C8.89169 89.0651 9.27449 87.4514 9.90413 86.1031C12.4253 84.4523 14.8911 82.7026 17.011 80.5487C18.0089 79.5345 19.5995 77.8178 20.1038 76.5196C21.268 73.5285 19.0425 72.7745 16.6546 74.1241C14.2364 75.4909 12.4966 78.1043 11.0987 80.4378C9.70481 82.766 8.51945 85.2368 7.44761 87.73C6.48005 85.7439 5.44517 83.7947 4.58981 81.7544C-6.31602 55.7496 2.79857 26.0908 25.7217 10.2452C35.7075 3.3426 47.2495 -0.0314726 59.3962 0.000221193C87.2033 0.0715323 111.477 19.8221 116.854 47.1342C118.658 56.2924 118.376 66.7593 115.699 75.726C115.538 76.2648 115.134 77.8283 114.847 78.1704C113.684 79.5438 110.27 81.2447 108.454 81.1377C107.868 81.1033 105.939 80.6042 105.766 79.9861L105.807 79.549C106.475 79.2889 106.931 78.6854 107.469 78.3077C108.457 77.6144 108.888 77.7491 109.625 76.5077C111.441 73.448 108.098 73.2618 106.098 74.6933C104.536 75.8105 103.231 77.5774 103.484 79.5966C103.447 79.7035 102.899 80.109 102.759 80.1908C101.128 81.1549 97.6709 82.4966 95.811 82.276C94.8844 82.1664 93.695 81.6316 93.7386 80.5447C93.7663 79.8316 95.6565 78.3064 96.2017 77.6553L96.2004 77.6566ZM26.1045 38.7261V65.9656C26.346 66.0263 26.5691 66.0844 26.8239 66.1043C29.2857 66.2984 32.9025 66.2205 35.4065 66.1043C39.1606 65.9286 43.081 64.6701 43.5087 60.3598C43.6552 58.8834 43.6063 55.9332 43.1193 54.5519C42.6097 53.1085 41.3795 51.9992 39.9526 51.5225C43.0335 50.1095 43.5007 46.4409 42.9239 43.4023C41.9431 38.2322 37.2096 38.3893 32.9011 38.2599C30.7377 38.1952 28.5188 38.2639 26.3685 38.3312C26.3078 38.3682 26.1177 38.6614 26.1045 38.7274V38.7261ZM46.278 38.3973V65.7688C46.278 65.7913 46.4813 66.0013 46.5433 66.0303C46.8588 66.1782 49.9476 66.132 50.0915 65.9577C49.9859 63.4908 49.8895 60.9897 49.9635 58.5083C49.974 58.1636 50.0928 57.8322 50.1113 57.4611C50.1443 56.8021 49.6744 55.5423 50.6881 55.4076C51.3996 55.3125 53.8165 55.3112 54.5241 55.4076C55.0085 55.4736 55.0151 55.644 55.2263 56.0243C56.5397 58.3947 57.6155 61.5588 58.7771 64.0798C58.9065 64.3598 59.1137 64.575 59.2272 64.8167C59.4173 65.2168 59.2576 65.8441 59.9268 65.9643C60.2581 66.0237 61.1254 66.0805 61.5069 66.0977C62.1787 66.1293 62.9047 66.1558 63.5462 65.9616L58.789 55.3495C58.7824 54.7896 59.7183 54.7592 60.2093 54.5136C60.8878 54.1755 61.9029 53.2841 62.3358 52.6846C64.4333 49.7872 64.5719 43.3058 62.2197 40.5855C60.9313 39.0972 58.7784 38.524 56.8895 38.3999H46.2767L46.278 38.3973ZM67.2436 38.3973V65.9009L67.4416 66.099H70.6056C71.1349 66.099 70.925 64.2871 70.929 63.9293C71.0161 55.5317 70.8815 47.1302 70.9316 38.7314L70.5805 38.285L67.2436 38.3973ZM83.3304 48.0256L78.0517 38.3246L74.2303 38.3986C76.0836 42.6759 78.6497 46.6165 80.8105 50.7447C81.3649 52.2593 79.7057 54.1913 79.0008 55.504C77.7587 57.8163 76.4347 60.0732 75.1728 62.3591C74.5696 63.4539 74.0521 64.6648 73.4832 65.7715L73.7036 66.0303L77.0551 66.0884L77.5858 65.8283L83.0664 55.1501L88.9298 65.8375C89.4763 66.2905 90.0386 65.9326 90.6485 65.9564C91.459 65.9881 92.5704 66.4318 93.208 65.7556C91.1422 61.8388 88.8823 57.9576 86.7822 54.0038C86.509 53.4901 85.5691 52.196 85.5652 51.6572C85.5612 51.1633 86.1737 50.0936 86.4245 49.6076C88.3728 45.8268 90.6775 42.2177 92.5585 38.3986L88.8163 38.2969C88.4784 38.3563 87.5702 40.2117 87.3445 40.6343C86.179 42.8252 85.0926 45.0701 83.9706 47.2834L83.3304 48.0256Z" fill="#312828"/>
<path d="M104.456 81.3685C105.697 82.5636 109.232 81.9231 110.75 81.4609C112.093 81.0516 113.378 80.3926 114.381 79.422C114.579 79.554 114.257 79.8023 114.177 80.0083C111.114 87.8763 107.112 94.1741 101.258 100.193C76.4592 125.691 34.5083 123.575 12.6346 95.3323C12.1581 94.7169 10.7166 93.1005 10.549 92.4112C10.483 92.1365 10.5094 92.2685 10.6783 92.2791C13.1362 92.4336 14.9129 91.1804 15.1663 88.6568C16.089 88.7558 17.0275 89.0226 17.9621 88.8839C18.3436 88.8271 18.7937 88.5445 19.059 88.526C19.4946 88.497 19.7784 88.8931 20.3077 88.7333C20.5863 88.6488 21.9432 87.2596 22.2217 86.9466C22.5451 86.5821 22.4395 86.1173 23.1497 86.0209C23.9734 85.91 24.834 86.1569 25.0201 87.0364C25.2062 87.9159 25.2287 88.5234 25.7435 89.3474C27.404 92.0071 31.3627 89.8862 33.1606 88.386C33.5618 88.386 33.909 89.2312 34.2113 89.4504C35.5075 90.388 38.5079 89.5468 39.5612 88.4626C40.1962 87.8103 40.5671 86.9928 40.8298 86.1424C41.594 85.9575 43.3008 86.837 44.2314 86.8119C44.8492 86.7961 46.5731 86.0988 46.9902 86.1754C47.4654 86.2639 47.3387 88.0361 48.7286 88.25C51.0954 88.6145 55.223 86.6468 57.3179 85.5164C57.5753 85.3778 57.8287 85.0516 58.0835 84.9631C58.3593 84.8667 58.2247 84.9341 58.2155 85.0938C58.1904 85.5257 57.9699 86.833 58.3659 87.0826C59.348 87.4735 60.3631 87.3758 61.3399 87.0364C62.0501 86.7895 63.807 85.6168 64.3719 85.0952C64.7085 84.7835 64.8933 84.1853 65.3501 84.0704C65.8094 84.0598 66.773 85.0529 67.2575 85.2787C68.6501 85.9258 70.6195 85.1586 71.8577 84.4349L71.9237 85.4913C73.241 86.3537 73.6014 85.1242 74.2957 84.4309C75.7741 82.9545 78.752 80.036 80.5591 79.2199C80.9973 79.0218 81.363 78.7815 81.8461 78.9915C82.6262 79.3295 83.1595 82.4012 84.3924 83.1751C84.8359 83.4537 85.5064 83.4286 86.0239 83.3678C87.3254 83.2173 88.9754 82.4421 90.1476 81.8215C90.4512 81.6604 91.7685 80.6977 91.9652 80.7399C92.4417 81.6696 92.6226 82.7828 93.6561 83.2728C95.5794 84.184 99.975 82.4223 101.885 81.56C102.492 81.2853 103.517 80.246 104.162 80.8112C104.352 80.9776 104.349 81.2642 104.459 81.3698L104.456 81.3685Z" fill="#312828"/>
<path d="M14.4497 78.1831C15.3064 77.1729 15.9255 76.3515 17.0937 75.6172C17.3854 75.4337 18.5377 74.7892 18.6988 75.2858C18.8479 76.0517 18.4084 76.955 18.0401 77.6192C16.398 80.5813 14.4721 81.9019 11.5523 83.3967C11.4018 83.4733 10.8012 84.1072 11.0481 83.4231C11.7595 81.4502 13.1178 79.7533 14.4484 78.1831H14.4497Z" fill="#312828"/>
<path d="M37.7963 83.2677C37.9494 83.2545 39.7697 85.1917 39.8528 85.3964C39.9848 85.7253 39.7816 86.2403 39.6271 86.5519C39.1889 87.4328 37.8847 88.649 36.8472 88.6332C36.7429 88.6318 35.4031 88.2317 35.3371 88.1881C34.6626 87.7378 35.0084 86.0356 35.3094 85.3978C35.8414 84.2726 36.7152 83.7695 37.7963 83.2664V83.2677Z" fill="#312828"/>
<path d="M94.1279 78.6179L93.7451 78.6285C93.8837 77.2485 94.7206 76.0534 95.2684 74.8107L97.0398 74.2759C97.4081 74.7698 94.2348 77.8467 94.1279 78.6179Z" fill="#312828"/>
<path d="M105.351 78.2336C105.253 78.1399 105.846 77.0847 105.958 76.9302C106.246 76.5354 108.144 74.6998 108.589 75.3257C108.754 75.8645 108.036 76.8298 107.657 77.1798C107.381 77.4347 105.541 78.4185 105.351 78.2349V78.2336Z" fill="#312828"/>
<path d="M98.757 70.5835C98.9946 70.8648 98.4098 72.9658 98.0428 73.2312C97.6548 73.5112 96.744 73.2814 96.2529 73.3527L97.503 71.5053L98.7557 70.5835H98.757Z" fill="#312828"/>
<path d="M38.2888 61.9309C38.0908 62.0656 38.0934 62.199 37.708 62.335C35.3848 63.1591 32.494 62.7114 30.052 62.7418L29.7959 53.5664C29.9992 53.3538 34.9782 53.3842 35.662 53.4357C39.259 53.7064 40.1539 55.9553 39.816 59.303C39.6999 60.4558 39.2154 61.305 38.2888 61.9309Z" fill="#312828"/>
<path d="M29.9287 50.1371L29.9472 41.8452C30.1663 41.7316 30.4039 41.7065 30.6481 41.688C32.1225 41.581 35.9017 41.5494 37.2125 41.9918C39.5673 42.7894 39.933 47.0245 38.6948 48.6818C38.213 49.3262 36.4152 50.1357 35.6641 50.1357H29.9287V50.1371Z" fill="#312828"/>
<path d="M50.1018 41.8265H57.1559C57.5057 41.8265 58.8508 42.5542 59.124 42.8909C60.2196 44.2418 60.3173 46.4182 60.1061 48.0755C59.784 50.611 58.9234 51.7929 56.2372 51.9883C55.5574 52.0372 50.6166 52.0689 50.3632 51.9184C50.2602 51.8576 50.2061 51.7044 50.1599 51.5935C49.8946 48.3554 49.8735 45.0593 50.1005 41.8252L50.1018 41.8265Z" fill="#312828"/>
</g>
<defs>
<clipPath id="clip0_500_4115">
<rect width="118" height="118" fill="white"/>
</clipPath>
</defs>
</svg>
