<svg width="698" height="89" viewBox="0 0 698 89" fill="none" xmlns="http://www.w3.org/2000/svg">
<path d="M676.411 27.0437C683.077 27.0437 688.304 29.0511 692.092 33.066C695.879 37.0809 697.773 43.4441 697.773 52.1557H658.571L658.344 49.9967H685.728C685.804 46.2849 685.501 42.876 684.819 39.7701C684.138 36.5885 683.077 34.0508 681.638 32.157C680.198 30.2632 678.305 29.3163 675.956 29.3163C672.699 29.3163 669.858 31.0586 667.434 34.5432C665.086 37.9521 663.646 43.4441 663.116 51.0194L663.457 51.5875C663.381 52.6481 663.306 53.8222 663.23 55.11C663.154 56.3221 663.116 57.5341 663.116 58.7462C663.116 63.9731 663.912 68.3668 665.502 71.9271C667.093 75.4875 669.176 78.1767 671.752 79.9948C674.328 81.7371 676.941 82.6082 679.592 82.6082C682.622 82.6082 685.539 81.8507 688.342 80.3357C691.22 78.8206 693.682 76.0178 695.728 71.9271L698 72.8362C697.091 75.4117 695.69 77.9494 693.796 80.4493C691.902 82.9491 689.478 84.9944 686.524 86.5852C683.569 88.1003 680.123 88.8578 676.183 88.8578C670.881 88.8578 666.26 87.6837 662.321 85.3353C658.382 82.9112 655.352 79.4645 653.23 74.9951C651.109 70.5257 650.049 65.223 650.049 59.0871C650.049 52.3451 651.147 46.5879 653.344 41.8155C655.541 37.043 658.609 33.4069 662.548 30.9071C666.563 28.3315 671.184 27.0437 676.411 27.0437Z" fill="black"/>
<path d="M628.167 9.88574V28.7481H643.848V31.0207H628.167V75.6769C628.167 78.7827 628.735 80.9796 629.872 82.2674C631.008 83.5551 632.637 84.199 634.758 84.199C636.727 84.199 638.47 83.4036 639.985 81.8128C641.575 80.222 642.939 77.5328 644.075 73.7452L646.234 74.5406C645.325 78.5555 643.696 81.9643 641.348 84.7672C639.076 87.4943 635.705 88.8578 631.235 88.8578C628.66 88.8578 626.501 88.5169 624.758 87.8352C623.016 87.2291 621.501 86.3201 620.213 85.1081C618.547 83.3658 617.41 81.2826 616.804 78.8585C616.198 76.4344 615.895 73.2149 615.895 69.2V31.0207H605.441V28.7481H615.895V12.1583C618.244 12.0826 620.44 11.8932 622.486 11.5902C624.531 11.2114 626.425 10.6433 628.167 9.88574Z" fill="black"/>
<path d="M579.358 27.0437C582.388 27.0437 584.85 27.4603 586.744 28.2936C588.714 29.0511 590.342 30.1117 591.63 31.4752C592.994 32.9145 593.941 34.7705 594.471 37.043C595.077 39.3156 595.38 42.3836 595.38 46.247V76.6995C595.38 79.8811 595.986 82.0401 597.198 83.1764C598.486 84.3127 600.607 84.8808 603.561 84.8808V87.267C602.273 87.1913 600.266 87.1155 597.539 87.0398C594.812 86.8883 592.123 86.8125 589.471 86.8125C586.896 86.8125 584.32 86.8883 581.744 87.0398C579.245 87.1155 577.351 87.1913 576.063 87.267V84.8808C578.639 84.8808 580.457 84.3127 581.517 83.1764C582.578 82.0401 583.108 79.8811 583.108 76.6995V43.0654C583.108 40.8686 582.919 38.899 582.54 37.1567C582.161 35.3386 581.366 33.8993 580.154 32.8388C578.942 31.7025 577.124 31.1343 574.699 31.1343C570.457 31.1343 566.973 32.8767 564.246 36.3613C561.594 39.8459 560.269 44.1638 560.269 49.315V76.6995C560.269 79.8811 560.799 82.0401 561.859 83.1764C562.996 84.3127 564.814 84.8808 567.314 84.8808V87.267C566.102 87.1913 564.246 87.1155 561.746 87.0398C559.322 86.8883 556.784 86.8125 554.133 86.8125C551.557 86.8125 548.868 86.8883 546.065 87.0398C543.262 87.1155 541.179 87.1913 539.815 87.267V84.8808C542.77 84.8808 544.853 84.3127 546.065 83.1764C547.353 82.0401 547.997 79.8811 547.997 76.6995V41.0201C547.997 37.6112 547.429 35.1114 546.292 33.5205C545.156 31.854 542.997 31.0207 539.815 31.0207V28.6345C542.24 28.8618 544.588 28.9754 546.86 28.9754C549.436 28.9754 551.822 28.8618 554.019 28.6345C556.292 28.3315 558.375 27.9149 560.269 27.3846V39.7701C562.238 35.0735 564.927 31.7782 568.336 29.8844C571.821 27.9906 575.495 27.0437 579.358 27.0437Z" fill="black"/>
<path d="M497.674 88.0624C492.675 88.0624 489.038 86.8125 486.766 84.3127C484.569 81.7371 483.471 78.4797 483.471 74.5406C483.471 71.2832 484.228 68.6319 485.743 66.5866C487.258 64.5412 489.19 62.8747 491.538 61.5869C493.962 60.2233 496.5 59.0871 499.151 58.178C501.879 57.1932 504.416 56.2842 506.765 55.4509C509.189 54.5419 511.158 53.5192 512.673 52.383C514.264 51.2467 515.06 49.8074 515.06 48.0651V40.3383C515.06 37.6112 514.605 35.4522 513.696 33.8614C512.863 32.1949 511.689 31.0207 510.173 30.3389C508.734 29.6572 506.992 29.3163 504.947 29.3163C503.204 29.3163 501.348 29.5814 499.379 30.1117C497.409 30.5662 495.856 31.5131 494.72 32.9524C496.387 33.4069 497.75 34.316 498.811 35.6795C499.947 36.9673 500.515 38.596 500.515 40.5655C500.515 42.6866 499.795 44.3532 498.356 45.5652C496.993 46.7773 495.25 47.3833 493.129 47.3833C490.781 47.3833 489.039 46.6636 487.902 45.2243C486.766 43.7093 486.198 41.967 486.198 39.9974C486.198 37.9521 486.69 36.2855 487.675 34.9977C488.736 33.7099 490.099 32.4979 491.766 31.3616C493.584 30.1496 495.894 29.1269 498.697 28.2936C501.576 27.4603 504.757 27.0437 508.242 27.0437C511.499 27.0437 514.302 27.4225 516.65 28.18C519.074 28.8618 521.082 29.9981 522.673 31.5889C524.566 33.3312 525.816 35.528 526.422 38.1793C527.028 40.7549 527.331 43.8987 527.331 47.6105V78.9721C527.331 80.7902 527.559 82.1158 528.013 82.9491C528.468 83.7824 529.301 84.199 530.513 84.199C531.422 84.199 532.255 83.9718 533.013 83.5173C533.77 83.0628 534.528 82.5325 535.285 81.9265L536.422 83.8582C534.831 85.146 533.202 86.1686 531.536 86.9261C529.945 87.6837 527.9 88.0624 525.4 88.0624C521.233 88.0624 518.468 87.0776 517.105 85.1081C515.817 83.1385 515.135 80.8659 515.06 78.2903C512.863 82.0022 510.249 84.5778 507.219 86.0171C504.265 87.3806 501.083 88.0624 497.674 88.0624ZM503.924 82.6082C505.893 82.6082 507.825 82.078 509.719 81.0174C511.613 79.8811 513.393 77.9873 515.06 75.336V52.7238C513.999 54.3146 512.37 55.6024 510.173 56.5872C508.052 57.572 505.856 58.6704 503.583 59.8825C501.386 61.0187 499.492 62.5717 497.902 64.5412C496.311 66.5108 495.515 69.2379 495.515 72.7225C495.515 76.1314 496.311 78.6312 497.902 80.222C499.492 81.8128 501.5 82.6082 503.924 82.6082Z" fill="black"/>
<path d="M455.716 27.0437C458.291 27.0437 460.753 27.3846 463.101 28.0664C465.45 28.6724 467.495 29.5435 469.237 30.6798C471.055 31.8161 472.419 33.1797 473.328 34.7705C474.313 36.3613 474.805 38.1036 474.805 39.9974C474.805 42.27 474.161 44.0502 472.874 45.338C471.586 46.6257 469.919 47.2696 467.874 47.2696C465.829 47.2696 464.124 46.7015 462.761 45.5652C461.397 44.4289 460.715 42.8002 460.715 40.6792C460.715 38.7096 461.283 37.1188 462.42 35.9068C463.556 34.619 464.882 33.7857 466.397 33.4069C465.715 32.2706 464.503 31.3237 462.761 30.5662C461.094 29.7329 459.276 29.3163 457.306 29.3163C455.261 29.3163 453.292 29.8465 451.398 30.9071C449.58 31.9676 447.951 33.5963 446.512 35.7931C445.072 37.99 443.898 40.8307 442.989 44.3153C442.156 47.7999 441.739 52.0042 441.739 56.9281C441.739 63.2913 442.459 68.3667 443.898 72.1544C445.413 75.8663 447.383 78.5176 449.807 80.1084C452.231 81.6992 454.844 82.4946 457.647 82.4946C460.299 82.4946 463.101 81.7371 466.056 80.222C469.01 78.6312 471.51 75.7526 473.555 71.5862L475.714 72.3816C474.881 74.8815 473.555 77.4192 471.737 79.9948C469.995 82.5704 467.684 84.6914 464.806 86.358C461.927 88.0246 458.405 88.8578 454.238 88.8578C449.466 88.8578 445.148 87.6837 441.285 85.3353C437.421 82.987 434.353 79.5781 432.081 75.1087C429.808 70.5636 428.672 65.0336 428.672 58.5189C428.672 52.1557 429.808 46.6258 432.081 41.9291C434.429 37.1567 437.649 33.4827 441.739 30.9071C445.83 28.3315 450.489 27.0437 455.716 27.0437Z" fill="black"/>
<path d="M392.342 27.0437C397.417 27.0437 401.924 28.1042 405.864 30.2253C409.803 32.3464 412.946 35.6795 415.295 40.2247C417.643 44.7698 418.817 50.7164 418.817 58.0644C418.817 65.4124 417.643 71.359 415.295 75.9041C412.946 80.3735 409.803 83.6688 405.864 85.7898C401.924 87.8352 397.417 88.8578 392.342 88.8578C387.342 88.8578 382.835 87.8352 378.82 85.7898C374.805 83.6688 371.623 80.3735 369.275 75.9041C367.002 71.359 365.866 65.4124 365.866 58.0644C365.866 50.7164 367.002 44.7698 369.275 40.2247C371.623 35.6795 374.805 32.3464 378.82 30.2253C382.835 28.1042 387.342 27.0437 392.342 27.0437ZM392.342 29.3163C388.403 29.3163 385.183 31.5889 382.683 36.134C380.183 40.6034 378.934 47.9135 378.934 58.0644C378.934 68.2152 380.183 75.5254 382.683 79.9948C385.183 84.3884 388.403 86.5852 392.342 86.5852C396.205 86.5852 399.387 84.3884 401.887 79.9948C404.462 75.5254 405.75 68.2152 405.75 58.0644C405.75 47.9135 404.462 40.6034 401.887 36.134C399.387 31.5889 396.205 29.3163 392.342 29.3163Z" fill="black"/>
<path d="M351.144 27.0437C353.341 27.0437 355.197 27.4982 356.712 28.4073C358.303 29.3163 359.477 30.4904 360.234 31.9297C361.068 33.2933 361.484 34.8462 361.484 36.5885C361.484 38.7854 360.803 40.6792 359.439 42.27C358.151 43.785 356.409 44.5426 354.212 44.5426C352.318 44.5426 350.69 43.9744 349.326 42.8381C348.038 41.7018 347.394 40.1489 347.394 38.1793C347.394 36.5128 347.811 35.1114 348.644 33.9751C349.553 32.763 350.576 31.8161 351.712 31.1343C350.955 30.5283 350.046 30.2632 348.985 30.3389C346.258 30.4904 343.834 31.6267 341.713 33.7478C339.668 35.7931 338.039 38.293 336.827 41.2473C335.615 44.2017 335.009 46.9288 335.009 49.4286V75.5632C335.009 79.2751 336.032 81.775 338.077 83.0627C340.122 84.2748 342.963 84.8808 346.599 84.8808V87.267C344.857 87.1913 342.357 87.1155 339.1 87.0398C335.918 86.8883 332.547 86.8125 328.987 86.8125C326.259 86.8125 323.532 86.8883 320.805 87.0398C318.078 87.1155 315.995 87.1913 314.556 87.267V84.8808C317.51 84.8808 319.593 84.3127 320.805 83.1764C322.093 82.0401 322.737 79.8811 322.737 76.6995V41.0201C322.737 37.6112 322.169 35.1114 321.033 33.5205C319.896 31.854 317.737 31.0207 314.556 31.0207V28.6345C316.98 28.8618 319.328 28.9754 321.601 28.9754C324.176 28.9754 326.562 28.8618 328.759 28.6345C331.032 28.3315 333.115 27.9149 335.009 27.3846V40.4519C335.918 38.2551 337.13 36.134 338.645 34.0887C340.16 32.0434 341.978 30.3768 344.099 29.089C346.22 27.7255 348.569 27.0437 351.144 27.0437Z" fill="black"/>
<path d="M243.792 6.81763C245.534 6.89338 247.769 6.96913 250.496 7.04488C253.299 7.12064 256.064 7.15851 258.791 7.15851C262.427 7.15851 265.874 7.12064 269.131 7.04488C272.464 6.96913 274.813 6.93125 276.176 6.93125C284.661 6.93125 290.986 8.59781 295.152 11.9309C299.394 15.264 301.515 19.5441 301.515 24.771C301.515 27.4223 300.872 30.0737 299.584 32.725C298.372 35.3006 296.364 37.6489 293.561 39.77C290.759 41.8153 287.047 43.444 282.426 44.656V44.8833C288.789 45.5651 293.789 46.9286 297.425 48.9739C301.061 51.0193 303.637 53.4812 305.152 56.3598C306.667 59.1627 307.424 62.117 307.424 65.2229C307.424 71.8891 304.886 77.2297 299.811 81.2445C294.811 85.2594 287.804 87.2669 278.79 87.2669C277.123 87.2669 274.585 87.229 271.177 87.1532C267.843 87.0017 263.791 86.926 259.018 86.926C256.14 86.926 253.299 86.9639 250.496 87.0396C247.769 87.0396 245.534 87.1154 243.792 87.2669V84.9943C246.368 84.8428 248.299 84.5398 249.587 84.0853C250.875 83.6307 251.708 82.7217 252.087 81.3582C252.541 79.9946 252.769 77.9493 252.769 75.2222V18.8623C252.769 16.0594 252.541 14.0141 252.087 12.7263C251.708 11.3628 250.837 10.4538 249.473 9.99924C248.186 9.46897 246.292 9.16595 243.792 9.0902V6.81763ZM273.79 9.0902C270.533 9.0902 268.374 9.7341 267.313 11.0219C266.328 12.3097 265.836 14.9232 265.836 18.8623V75.2222C265.836 79.1613 266.366 81.7369 267.427 82.949C268.487 84.0853 270.722 84.6534 274.131 84.6534C280.949 84.6534 285.873 82.949 288.903 79.5401C292.009 76.0555 293.561 71.1316 293.561 64.7684C293.561 58.9354 292.009 54.4281 288.903 51.2465C285.873 48.0649 280.835 46.4741 273.79 46.4741H262.768C262.768 46.4741 262.768 46.1711 262.768 45.5651C262.768 44.8833 262.768 44.5424 262.768 44.5424H272.54C276.706 44.5424 279.926 43.7091 282.199 42.0426C284.471 40.3003 286.024 38.0277 286.857 35.2248C287.691 32.3462 288.107 29.2783 288.107 26.0209C288.107 20.4152 287.009 16.2109 284.812 13.4081C282.615 10.5295 278.941 9.0902 273.79 9.0902Z" fill="black"/>
<path d="M178.479 28.6345V31.0207C177.04 31.0207 175.866 31.3616 174.957 32.0434C174.048 32.7252 173.972 33.6721 174.73 34.8841L204.955 79.1994C206.091 80.9417 207.152 82.2674 208.137 83.1764C209.197 84.0097 210.409 84.5778 211.773 84.8808V87.267C210.864 87.1913 209.5 87.1155 207.682 87.0398C205.94 86.8883 204.16 86.8125 202.342 86.8125C199.842 86.8125 197.228 86.8883 194.501 87.0398C191.774 87.1155 189.767 87.1913 188.479 87.267V84.8808C189.994 84.8808 191.206 84.5399 192.115 83.8582C193.024 83.1006 193.062 82.1537 192.229 81.0174L162.003 36.7022C160.564 34.6568 159.39 33.2554 158.481 32.4979C157.648 31.6646 156.549 31.1722 155.186 31.0207V28.6345C156.17 28.7103 157.61 28.8239 159.503 28.9754C161.397 29.0512 163.253 29.089 165.071 29.089C167.571 29.089 170.109 29.0512 172.684 28.9754C175.336 28.8239 177.267 28.7103 178.479 28.6345ZM179.729 58.4053C179.729 58.4053 179.881 58.8977 180.184 59.8825C180.487 60.8672 180.638 61.3596 180.638 61.3596L172.798 71.4726C170.753 74.124 169.654 76.4723 169.503 78.5176C169.351 80.4872 170.033 82.0022 171.548 83.0628C173.063 84.1233 175.146 84.7672 177.798 84.9944V87.267C176.434 87.1913 174.881 87.1534 173.139 87.1534C171.397 87.0777 169.692 87.0398 168.026 87.0398C166.359 86.964 164.92 86.9261 163.708 86.9261C160.45 86.9261 157.648 87.0398 155.299 87.267V84.9944C156.814 84.6914 158.329 83.9339 159.844 82.7219C161.435 81.4341 163.291 79.4645 165.412 76.8132L179.729 58.4053ZM209.159 28.6345V30.9071C207.644 31.2101 206.016 32.0434 204.273 33.4069C202.607 34.7705 200.864 36.7022 199.046 39.202L186.093 56.4736C186.093 56.4736 185.941 56.0191 185.638 55.1101C185.411 54.1253 185.297 53.6329 185.297 53.6329L193.138 42.8381C195.789 39.1263 196.925 36.2855 196.546 34.316C196.243 32.3464 194.085 31.2101 190.07 30.9071V28.6345C192.115 28.7103 193.933 28.786 195.524 28.8618C197.19 28.9375 198.933 28.9754 200.751 28.9754C204.084 28.9754 206.887 28.8618 209.159 28.6345Z" fill="black"/>
<path d="M135.776 0C138.124 0 140.094 0.757523 141.685 2.27257C143.276 3.71187 144.071 5.52993 144.071 7.72676C144.071 9.92359 143.276 11.7795 141.685 13.2946C140.094 14.7339 138.124 15.4535 135.776 15.4535C133.428 15.4535 131.458 14.7339 129.867 13.2946C128.277 11.7795 127.481 9.92359 127.481 7.72676C127.481 5.52993 128.277 3.71187 129.867 2.27257C131.458 0.757523 133.428 0 135.776 0ZM142.594 27.3846V76.6995C142.594 79.8811 143.2 82.0401 144.412 83.1763C145.7 84.3126 147.821 84.8808 150.775 84.8808V87.267C149.487 87.1912 147.48 87.1155 144.753 87.0397C142.101 86.8882 139.374 86.8125 136.571 86.8125C133.92 86.8125 131.193 86.8882 128.39 87.0397C125.587 87.1155 123.504 87.1912 122.141 87.267V84.8808C125.095 84.8808 127.178 84.3126 128.39 83.1763C129.678 82.0401 130.322 79.8811 130.322 76.6995V41.02C130.322 37.6112 129.754 35.1113 128.617 33.5205C127.481 31.854 125.322 31.0207 122.141 31.0207V28.6345C124.565 28.8617 126.913 28.9754 129.186 28.9754C131.761 28.9754 134.147 28.8617 136.344 28.6345C138.617 28.3315 140.7 27.9148 142.594 27.3846Z" fill="black"/>
<path d="M107.352 27.0437C109.549 27.0437 111.405 27.4982 112.92 28.4073C114.511 29.3163 115.685 30.4904 116.442 31.9297C117.276 33.2933 117.692 34.8462 117.692 36.5885C117.692 38.7854 117.011 40.6792 115.647 42.27C114.359 43.785 112.617 44.5426 110.42 44.5426C108.526 44.5426 106.898 43.9744 105.534 42.8381C104.246 41.7018 103.602 40.1489 103.602 38.1793C103.602 36.5128 104.019 35.1114 104.852 33.9751C105.761 32.763 106.784 31.8161 107.92 31.1343C107.163 30.5283 106.254 30.2632 105.193 30.3389C102.466 30.4904 100.042 31.6267 97.921 33.7478C95.8757 35.7931 94.247 38.293 93.0349 41.2473C91.8229 44.2017 91.2169 46.9288 91.2169 49.4286V75.5632C91.2169 79.2751 92.2395 81.775 94.2848 83.0627C96.3302 84.2748 99.1709 84.8808 102.807 84.8808V87.267C101.065 87.1913 98.5649 87.1155 95.3075 87.0398C92.1259 86.8883 88.7549 86.8125 85.1945 86.8125C82.4674 86.8125 79.7404 86.8883 77.0133 87.0398C74.2862 87.1155 72.203 87.1913 70.7637 87.267V84.8808C73.718 84.8808 75.8012 84.3127 77.0133 83.1764C78.3011 82.0401 78.945 79.8811 78.945 76.6995V41.0201C78.945 37.6112 78.3768 35.1114 77.2405 33.5205C76.1042 31.854 73.9453 31.0207 70.7637 31.0207V28.6345C73.1878 28.8618 75.5361 28.9754 77.8087 28.9754C80.3842 28.9754 82.7705 28.8618 84.9673 28.6345C87.2399 28.3315 89.3231 27.9149 91.2169 27.3846V40.4519C92.1259 38.2551 93.3379 36.134 94.853 34.0887C96.368 32.0434 98.1861 30.3768 100.307 29.089C102.428 27.7255 104.777 27.0437 107.352 27.0437Z" fill="black"/>
<path d="M0 6.81763C1.74231 6.89338 3.97701 6.96913 6.7041 7.04488C9.50695 7.12064 12.2719 7.15851 14.999 7.15851C18.6351 7.15851 22.0819 7.12064 25.3392 7.04488C28.6724 6.96913 31.0207 6.93125 32.3842 6.93125C40.8685 6.93125 47.1939 8.59781 51.3603 11.9309C55.6024 15.264 57.7235 19.5441 57.7235 24.771C57.7235 27.4223 57.0796 30.0737 55.7918 32.725C54.5797 35.3006 52.5723 37.6489 49.7695 39.77C46.9666 41.8153 43.2547 43.444 38.6338 44.656V44.8833C44.997 45.5651 49.9967 46.9286 53.6328 48.9739C57.269 51.0193 59.8445 53.4812 61.3596 56.3598C62.8747 59.1627 63.6322 62.117 63.6322 65.2229C63.6322 71.8891 61.0945 77.2297 56.019 81.2445C51.0194 85.2594 44.0123 87.2669 34.9977 87.2669C33.3311 87.2669 30.7934 87.229 27.3846 87.1532C24.0514 87.0017 19.9987 86.926 15.2263 86.926C12.3477 86.926 9.50695 86.9639 6.7041 87.0396C3.97701 87.0396 1.74231 87.1154 0 87.2669V84.9943C2.57559 84.8428 4.50728 84.5398 5.79507 84.0853C7.08287 83.6307 7.91615 82.7217 8.29491 81.3582C8.74942 79.9946 8.97668 77.9493 8.97668 75.2222V18.8623C8.97668 16.0594 8.74942 14.0141 8.29491 12.7263C7.91615 11.3628 7.04499 10.4538 5.68144 9.99924C4.39365 9.46897 2.49984 9.16595 0 9.0902V6.81763ZM29.998 9.0902C26.7407 9.0902 24.5817 9.7341 23.5212 11.0219C22.5364 12.3097 22.044 14.9232 22.044 18.8623V75.2222C22.044 79.1613 22.5743 81.7369 23.6348 82.949C24.6953 84.0853 26.93 84.6534 30.3389 84.6534C37.1566 84.6534 42.0806 82.949 45.1107 79.5401C48.2165 76.0555 49.7695 71.1316 49.7695 64.7684C49.7695 58.9354 48.2165 54.4281 45.1107 51.2465C42.0806 48.0649 37.043 46.4741 29.998 46.4741H18.976C18.976 46.4741 18.976 46.1711 18.976 45.5651C18.976 44.8833 18.976 44.5424 18.976 44.5424H28.7481C32.9145 44.5424 36.134 43.7091 38.4066 42.0426C40.6791 40.3003 42.2321 38.0277 43.0654 35.2248C43.8986 32.3462 44.3153 29.2783 44.3153 26.0209C44.3153 20.4152 43.2169 16.2109 41.02 13.4081C38.8232 10.5295 35.1492 9.0902 29.998 9.0902Z" fill="black"/>
</svg>
