<svg width="353" height="38" viewBox="0 0 353 38" fill="none" xmlns="http://www.w3.org/2000/svg">
<path d="M0.922901 37V0.787063H8.55348V31.387H26.5048V37H0.922901ZM27.7722 37L40.395 0.787063H49.6293L62.3038 37H54.2853L51.9055 29.9643H37.679L35.2993 37H27.7722ZM50.6122 25.1273L47.6376 15.8154C46.7064 13.0046 45.8442 10.03 45.051 6.89153H44.5078C43.818 9.73683 42.9816 12.7201 41.9987 15.8413L38.9982 25.1273H50.6122ZM75.3664 0.787063H94.3005C97.8701 0.787063 100.56 1.53719 102.371 3.03744C104.182 4.52044 105.087 6.72771 105.087 9.65923V9.78856C105.087 11.9269 104.569 13.6513 103.535 14.9618C102.5 16.2552 100.983 17.1001 98.9824 17.4967V17.9623C101.379 18.3934 103.19 19.3505 104.414 20.8335C105.639 22.3165 106.251 24.291 106.251 26.7569V26.8604C106.251 30.1885 105.277 32.7148 103.328 34.4392C101.397 36.1464 98.5254 37 94.7144 37H75.3664V0.787063ZM92.0243 15.6085C95.6628 15.6085 97.4821 13.9962 97.4821 10.7715V10.668C97.4821 7.49508 95.6628 5.90861 92.0243 5.90861H82.9969V15.6085H92.0243ZM92.2571 31.8526C96.2578 31.8526 98.2581 29.9299 98.2581 26.0844V25.9809C98.2581 22.2044 96.2578 20.3162 92.2571 20.3162H82.9969V31.8526H92.2571ZM110.596 0.787063H128.03C132.134 0.787063 135.247 1.63203 137.368 3.32197C139.506 4.99466 140.576 7.45197 140.576 10.6939V10.7974C140.576 13.2633 139.886 15.2205 138.506 16.669C137.127 18.1003 135.118 18.9625 132.479 19.2557V19.7471C133.497 20.023 134.324 20.3938 134.963 20.8594C135.618 21.325 136.17 21.9544 136.618 22.7476C137.084 23.5409 137.523 24.6014 137.937 25.9292L139.101 29.8091C139.705 31.706 140.282 33.1545 140.834 34.1547C141.403 35.1549 142.033 35.8877 142.722 36.3533L142.645 37H134.005C133.54 36.3275 133.117 35.4997 132.738 34.5168C132.376 33.5167 131.962 32.1113 131.496 30.3006L130.539 26.731C130.194 25.4377 129.815 24.4289 129.401 23.7047C128.987 22.9632 128.418 22.4114 127.694 22.0492C126.987 21.6699 126.039 21.4802 124.849 21.4802H118.227V37H110.596V0.787063ZM126.504 16.5914C128.66 16.5914 130.255 16.1776 131.289 15.3498C132.324 14.5049 132.841 13.1684 132.841 11.3405V11.2629C132.841 9.43506 132.333 8.09863 131.315 7.25366C130.315 6.39145 128.763 5.96034 126.659 5.96034H118.227V16.5914H126.504ZM162.381 37.6467C156.501 37.6467 152.052 36.0861 149.034 32.9648C146.033 29.8436 144.533 25.1963 144.533 19.0229V18.9194C144.533 12.6942 146.033 8.01241 149.034 4.87395C152.052 1.71825 156.501 0.140403 162.381 0.140403C168.278 0.140403 172.727 1.71825 175.728 4.87395C178.746 8.01241 180.255 12.6942 180.255 18.9194V19.0229C180.255 25.1963 178.746 29.8436 175.728 32.9648C172.727 36.0861 168.278 37.6467 162.381 37.6467ZM162.381 32.2147C165.761 32.2147 168.27 31.1887 169.908 29.1366C171.546 27.0846 172.365 23.9461 172.365 19.7213V18.221C172.365 13.9272 171.546 10.7456 169.908 8.67631C168.27 6.607 165.761 5.57234 162.381 5.57234C159.018 5.57234 156.509 6.607 154.854 8.67631C153.216 10.7456 152.396 13.9272 152.396 18.221V19.7213C152.396 23.9461 153.216 27.0846 154.854 29.1366C156.509 31.1887 159.018 32.2147 162.381 32.2147ZM201.517 37.6467C195.826 37.6467 191.524 36.0688 188.609 32.9131C185.712 29.7574 184.264 25.1015 184.264 18.9453V18.8418C184.264 12.7028 185.712 8.05552 188.609 4.89982C191.524 1.72687 195.809 0.140403 201.465 0.140403C206.535 0.140403 210.441 1.33026 213.182 3.70996C215.924 6.07243 217.459 9.56439 217.787 14.1858L210.182 15.4533C210.061 12.1079 209.285 9.62474 207.854 8.00378C206.423 6.38282 204.293 5.57234 201.465 5.57234C198.309 5.57234 195.964 6.607 194.429 8.67631C192.895 10.7284 192.127 13.8841 192.127 18.1434V19.6695C192.127 23.9116 192.895 27.0673 194.429 29.1366C195.981 31.1887 198.344 32.2147 201.517 32.2147C204.328 32.2147 206.466 31.4042 207.932 29.7833C209.397 28.1623 210.225 25.6791 210.415 22.3338L218.123 23.7823C217.692 28.352 216.071 31.8095 213.26 34.1547C210.466 36.4827 206.552 37.6467 201.517 37.6467ZM219.183 37L231.806 0.787063H241.041L253.715 37H245.696L243.317 29.9643H229.09L226.711 37H219.183ZM242.023 25.1273L239.049 15.8154C238.118 13.0046 237.255 10.03 236.462 6.89153H235.919C235.229 9.73683 234.393 12.7201 233.41 15.8413L230.409 25.1273H242.023ZM257 0.787063H265.303L278.211 21.9716C279.262 23.765 280.202 25.6188 281.03 27.5329L281.573 27.4294C281.263 24.6876 281.108 22.2303 281.108 20.0575V0.787063H288.505V37H280.176L267.554 16.1517C266.45 14.2721 265.433 12.2286 264.501 10.0214L263.958 10.1248C264.251 12.8149 264.398 15.3067 264.398 17.6002V37H257V0.787063ZM303.094 37V6.4518H291.816V0.787063H322.054V6.4518H310.75V37H303.094ZM333.021 31.6974H352.24V37H325.391V0.787063H351.723V6.08967H333.021V15.6861H350.533V20.4972H333.021V31.6974Z" fill="#201D1D"/>
</svg>
