<svg width="230" height="48" viewBox="0 0 230 48" fill="none" xmlns="http://www.w3.org/2000/svg">
<path d="M9.26562 30V8.125H13.875V26.6094H24.7188V30H9.26562ZM25.4844 30L33.1094 8.125H38.6875L46.3438 30H41.5L40.0625 25.75H31.4688L30.0312 30H25.4844ZM39.2812 22.8281L37.4844 17.2031C36.9219 15.5052 36.401 13.7083 35.9219 11.8125H35.5938C35.1771 13.5312 34.6719 15.3333 34.0781 17.2188L32.2656 22.8281H39.2812ZM54.2344 8.125H65.6719C67.8281 8.125 69.4531 8.57812 70.5469 9.48438C71.6406 10.3802 72.1875 11.7135 72.1875 13.4844V13.5625C72.1875 14.8542 71.875 15.8958 71.25 16.6875C70.625 17.4688 69.7083 17.9792 68.5 18.2188V18.5C69.9479 18.7604 71.0417 19.3385 71.7812 20.2344C72.5208 21.1302 72.8906 22.3229 72.8906 23.8125V23.875C72.8906 25.8854 72.3021 27.4115 71.125 28.4531C69.9583 29.4844 68.224 30 65.9219 30H54.2344V8.125ZM64.2969 17.0781C66.4948 17.0781 67.5938 16.1042 67.5938 14.1562V14.0938C67.5938 12.1771 66.4948 11.2188 64.2969 11.2188H58.8438V17.0781H64.2969ZM64.4375 26.8906C66.8542 26.8906 68.0625 25.7292 68.0625 23.4062V23.3438C68.0625 21.0625 66.8542 19.9219 64.4375 19.9219H58.8438V26.8906H64.4375ZM75.5156 8.125H86.0469C88.526 8.125 90.4062 8.63542 91.6875 9.65625C92.9792 10.6667 93.625 12.151 93.625 14.1094V14.1719C93.625 15.6615 93.2083 16.8438 92.375 17.7188C91.5417 18.5833 90.3281 19.1042 88.7344 19.2812V19.5781C89.349 19.7448 89.849 19.9688 90.2344 20.25C90.6302 20.5312 90.9635 20.9115 91.2344 21.3906C91.5156 21.8698 91.7812 22.5104 92.0312 23.3125L92.7344 25.6562C93.099 26.8021 93.4479 27.6771 93.7812 28.2812C94.125 28.8854 94.5052 29.3281 94.9219 29.6094L94.875 30H89.6562C89.375 29.5938 89.1198 29.0938 88.8906 28.5C88.6719 27.8958 88.4219 27.0469 88.1406 25.9531L87.5625 23.7969C87.3542 23.0156 87.125 22.4062 86.875 21.9688C86.625 21.5208 86.2812 21.1875 85.8438 20.9688C85.4167 20.7396 84.8438 20.625 84.125 20.625H80.125V30H75.5156V8.125ZM85.125 17.6719C86.4271 17.6719 87.3906 17.4219 88.0156 16.9219C88.6406 16.4115 88.9531 15.6042 88.9531 14.5V14.4531C88.9531 13.349 88.6458 12.5417 88.0312 12.0312C87.4271 11.5104 86.4896 11.25 85.2188 11.25H80.125V17.6719H85.125ZM106.797 30.3906C103.245 30.3906 100.557 29.4479 98.7344 27.5625C96.9219 25.6771 96.0156 22.8698 96.0156 19.1406V19.0781C96.0156 15.3177 96.9219 12.4896 98.7344 10.5938C100.557 8.6875 103.245 7.73438 106.797 7.73438C110.359 7.73438 113.047 8.6875 114.859 10.5938C116.682 12.4896 117.594 15.3177 117.594 19.0781V19.1406C117.594 22.8698 116.682 25.6771 114.859 27.5625C113.047 29.4479 110.359 30.3906 106.797 30.3906ZM106.797 27.1094C108.839 27.1094 110.354 26.4896 111.344 25.25C112.333 24.0104 112.828 22.1146 112.828 19.5625V18.6562C112.828 16.0625 112.333 14.1406 111.344 12.8906C110.354 11.6406 108.839 11.0156 106.797 11.0156C104.766 11.0156 103.25 11.6406 102.25 12.8906C101.26 14.1406 100.766 16.0625 100.766 18.6562V19.5625C100.766 22.1146 101.26 24.0104 102.25 25.25C103.25 26.4896 104.766 27.1094 106.797 27.1094ZM130.438 30.3906C127 30.3906 124.401 29.4375 122.641 27.5312C120.891 25.625 120.016 22.8125 120.016 19.0938V19.0312C120.016 15.3229 120.891 12.5156 122.641 10.6094C124.401 8.69271 126.99 7.73438 130.406 7.73438C133.469 7.73438 135.828 8.45312 137.484 9.89062C139.141 11.3177 140.068 13.4271 140.266 16.2188L135.672 16.9844C135.599 14.9635 135.13 13.4635 134.266 12.4844C133.401 11.5052 132.115 11.0156 130.406 11.0156C128.5 11.0156 127.083 11.6406 126.156 12.8906C125.229 14.1302 124.766 16.0365 124.766 18.6094V19.5312C124.766 22.0938 125.229 24 126.156 25.25C127.094 26.4896 128.521 27.1094 130.438 27.1094C132.135 27.1094 133.427 26.6198 134.312 25.6406C135.198 24.6615 135.698 23.1615 135.812 21.1406L140.469 22.0156C140.208 24.776 139.229 26.8646 137.531 28.2812C135.844 29.6875 133.479 30.3906 130.438 30.3906ZM141.109 30L148.734 8.125H154.312L161.969 30H157.125L155.688 25.75H147.094L145.656 30H141.109ZM154.906 22.8281L153.109 17.2031C152.547 15.5052 152.026 13.7083 151.547 11.8125H151.219C150.802 13.5312 150.297 15.3333 149.703 17.2188L147.891 22.8281H154.906ZM163.953 8.125H168.969L176.766 20.9219C177.401 22.0052 177.969 23.125 178.469 24.2812L178.797 24.2188C178.609 22.5625 178.516 21.0781 178.516 19.7656V8.125H182.984V30H177.953L170.328 17.4062C169.661 16.2708 169.047 15.0365 168.484 13.7031L168.156 13.7656C168.333 15.3906 168.422 16.8958 168.422 18.2812V30H163.953V8.125ZM191.797 30V11.5469H184.984V8.125H203.25V11.5469H196.422V30H191.797ZM209.875 26.7969H221.484V30H205.266V8.125H221.172V11.3281H209.875V17.125H220.453V20.0312H209.875V26.7969Z" fill="#201D1D"/>
<path d="M80.039 47.1598C78.8723 47.1598 77.9559 46.8348 77.29 46.1849C76.6294 45.535 76.2458 44.5547 76.1393 43.2442L76.9943 42.8526C77.0103 43.7316 77.1302 44.4455 77.3539 44.9942C77.583 45.5376 77.9187 45.9372 78.3608 46.1929C78.803 46.4433 79.3624 46.5685 80.039 46.5685C80.5557 46.5685 81.0059 46.4832 81.3895 46.3128C81.7784 46.1423 82.0767 45.8972 82.2845 45.5776C82.4976 45.2579 82.6041 44.8823 82.6041 44.4508C82.6041 44.0566 82.5269 43.7183 82.3724 43.436C82.2232 43.1536 81.9941 42.9032 81.6851 42.6848C81.3815 42.4664 80.9686 42.2373 80.4465 41.9975L79.0321 41.3503C78.4674 41.0892 78.0145 40.8255 77.6736 40.5591C77.3326 40.2928 77.0743 39.9811 76.8984 39.6242C76.728 39.2619 76.6427 38.8277 76.6427 38.3216C76.6427 37.7836 76.7653 37.3147 77.0103 36.9152C77.2554 36.5103 77.6043 36.1986 78.0572 35.9802C78.5153 35.7618 79.0481 35.6526 79.6554 35.6526C80.6783 35.6526 81.4827 35.9562 82.0687 36.5636C82.6601 37.1709 82.9904 38.0313 83.0596 39.1447L82.2205 39.5203C82.1992 38.4175 81.9782 37.5944 81.5573 37.051C81.1364 36.5076 80.5025 36.2359 79.6554 36.2359C79.1972 36.2359 78.7977 36.3132 78.4567 36.4677C78.1158 36.6222 77.8521 36.8459 77.6656 37.1389C77.4845 37.4266 77.3939 37.7676 77.3939 38.1618C77.3939 38.572 77.4632 38.9156 77.6017 39.1927C77.7402 39.4697 77.9613 39.7201 78.2649 39.9438C78.5739 40.1622 79.0028 40.394 79.5515 40.6391L80.942 41.2624C81.7358 41.6193 82.3431 42.0375 82.7639 42.517C83.1901 42.9964 83.4032 43.5931 83.4032 44.307C83.4032 44.8823 83.2647 45.3858 82.9877 45.8173C82.716 46.2435 82.3244 46.5738 81.813 46.8082C81.3069 47.0426 80.7156 47.1598 80.039 47.1598ZM91.4343 35.8124H92.2734V47H91.4343V41.3263H86.1682V47H85.3291V35.8124H86.1682V40.687H91.4343V35.8124ZM98.5305 47.1598C97.6568 47.1598 96.9136 46.9387 96.3009 46.4966C95.6936 46.0544 95.2301 45.4044 94.9105 44.5467C94.5962 43.689 94.439 42.6475 94.439 41.4222V41.3902C94.439 40.1649 94.5962 39.1234 94.9105 38.2657C95.2301 37.408 95.6936 36.758 96.3009 36.3158C96.9136 35.8737 97.6568 35.6526 98.5305 35.6526C99.4042 35.6526 100.145 35.8737 100.752 36.3158C101.365 36.758 101.828 37.408 102.142 38.2657C102.462 39.1234 102.622 40.1649 102.622 41.3902V41.4222C102.622 42.6475 102.462 43.689 102.142 44.5467C101.828 45.4044 101.365 46.0544 100.752 46.4966C100.145 46.9387 99.4042 47.1598 98.5305 47.1598ZM98.5305 46.5525C99.6173 46.5525 100.424 46.1316 100.952 45.2899C101.479 44.4482 101.743 43.1589 101.743 41.4222V41.3902C101.743 39.6482 101.477 38.3563 100.944 37.5145C100.416 36.6728 99.6093 36.2519 98.5225 36.2519C97.441 36.2519 96.6366 36.6728 96.1092 37.5145C95.5817 38.3563 95.318 39.6482 95.318 41.3902V41.4222C95.318 43.1589 95.5817 44.4482 96.1092 45.2899C96.6366 46.1316 97.4437 46.5525 98.5305 46.5525ZM103.381 35.8124H104.244L105.898 42.8366C106.021 43.3534 106.119 43.8462 106.194 44.315C106.274 44.7785 106.351 45.3085 106.426 45.9052H106.633C106.708 45.218 106.775 44.6586 106.833 44.2271C106.897 43.7902 106.982 43.3267 107.089 42.8366L108.655 35.8124H109.574L111.125 42.8366C111.242 43.3534 111.335 43.8462 111.404 44.315C111.473 44.7785 111.535 45.3006 111.588 45.8812H111.804C111.873 45.3112 111.948 44.7918 112.028 44.323C112.113 43.8542 112.217 43.3587 112.339 42.8366L114.001 35.8124H114.84L112.139 47H111.228L109.862 40.6231C109.596 39.3871 109.38 38.255 109.215 37.2268H109.007C108.82 38.3829 108.607 39.515 108.368 40.6231L106.993 47H106.082L103.381 35.8124ZM116.399 35.8124H119.236C120.317 35.8124 121.148 36.0548 121.729 36.5396C122.315 37.0191 122.608 37.709 122.608 38.6093V38.6413C122.608 39.3551 122.392 39.9252 121.96 40.3514C121.534 40.7776 120.924 41.0306 120.131 41.1105V41.2384C120.397 41.3236 120.618 41.4382 120.794 41.582C120.975 41.7258 121.137 41.931 121.281 42.1973C121.425 42.4584 121.572 42.818 121.721 43.2761L122.16 44.6346C122.373 45.2952 122.576 45.7907 122.768 46.121C122.959 46.4459 123.178 46.6857 123.423 46.8402L123.407 47H122.232C122.067 46.7549 121.918 46.4619 121.785 46.121C121.651 45.7747 121.481 45.2553 121.273 44.5627L120.866 43.2042C120.727 42.7354 120.578 42.3785 120.418 42.1334C120.258 41.883 120.059 41.7045 119.819 41.598C119.579 41.4914 119.259 41.4382 118.86 41.4382H117.238V47H116.399V35.8124ZM119.1 40.7989C119.984 40.7989 120.642 40.6231 121.073 40.2715C121.51 39.9145 121.729 39.3711 121.729 38.6413V38.6093C121.729 37.8794 121.51 37.3387 121.073 36.9871C120.642 36.6302 119.984 36.4517 119.1 36.4517H117.238V40.7989H119.1ZM128.481 47.1598C127.608 47.1598 126.864 46.9387 126.252 46.4966C125.644 46.0544 125.181 45.4044 124.861 44.5467C124.547 43.689 124.39 42.6475 124.39 41.4222V41.3902C124.39 40.1649 124.547 39.1234 124.861 38.2657C125.181 37.408 125.644 36.758 126.252 36.3158C126.864 35.8737 127.608 35.6526 128.481 35.6526C129.355 35.6526 130.095 35.8737 130.703 36.3158C131.315 36.758 131.779 37.408 132.093 38.2657C132.413 39.1234 132.573 40.1649 132.573 41.3902V41.4222C132.573 42.6475 132.413 43.689 132.093 44.5467C131.779 45.4044 131.315 46.0544 130.703 46.4966C130.095 46.9387 129.355 47.1598 128.481 47.1598ZM128.481 46.5525C129.568 46.5525 130.375 46.1316 130.903 45.2899C131.43 44.4482 131.694 43.1589 131.694 41.4222V41.3902C131.694 39.6482 131.427 38.3563 130.895 37.5145C130.367 36.6728 129.56 36.2519 128.473 36.2519C127.392 36.2519 126.587 36.6728 126.06 37.5145C125.533 38.3563 125.269 39.6482 125.269 41.3902V41.4222C125.269 43.1589 125.533 44.4482 126.06 45.2899C126.587 46.1316 127.394 46.5525 128.481 46.5525ZM138.422 47.1598C137.549 47.1598 136.805 46.9387 136.193 46.4966C135.585 46.0544 135.122 45.4044 134.802 44.5467C134.488 43.689 134.331 42.6475 134.331 41.4222V41.3902C134.331 40.1649 134.488 39.1234 134.802 38.2657C135.122 37.408 135.585 36.758 136.193 36.3158C136.805 35.8737 137.549 35.6526 138.422 35.6526C139.296 35.6526 140.036 35.8737 140.644 36.3158C141.256 36.758 141.72 37.408 142.034 38.2657C142.354 39.1234 142.514 40.1649 142.514 41.3902V41.4222C142.514 42.6475 142.354 43.689 142.034 44.5467C141.72 45.4044 141.256 46.0544 140.644 46.4966C140.036 46.9387 139.296 47.1598 138.422 47.1598ZM138.422 46.5525C139.509 46.5525 140.316 46.1316 140.844 45.2899C141.371 44.4482 141.635 43.1589 141.635 41.4222V41.3902C141.635 39.6482 141.368 38.3563 140.836 37.5145C140.308 36.6728 139.501 36.2519 138.414 36.2519C137.333 36.2519 136.528 36.6728 136.001 37.5145C135.474 38.3563 135.21 39.6482 135.21 41.3902V41.4222C135.21 43.1589 135.474 44.4482 136.001 45.2899C136.528 46.1316 137.335 46.5525 138.422 46.5525ZM144.671 35.8124H145.838L148.299 43.5239C148.427 43.9234 148.534 44.2857 148.619 44.6106C148.704 44.9356 148.797 45.3352 148.899 45.8093H148.987C149.077 45.3565 149.162 44.9676 149.242 44.6426C149.327 44.3176 149.437 43.9447 149.57 43.5239L151.983 35.8124H153.198V47H152.359V39.5443C152.359 39.0755 152.369 38.6493 152.391 38.2657C152.412 37.8768 152.449 37.4559 152.503 37.0031L152.343 36.9871L149.258 47H148.571L145.438 36.9711L145.271 36.9871C145.351 37.8501 145.391 38.7025 145.391 39.5443V47H144.671V35.8124Z" fill="#201D1D"/>
</svg>
